<svg width="49" height="49" viewBox="0 0 49 49" fill="none" xmlns="http://www.w3.org/2000/svg">
<rect x="0.353516" width="48.2339" height="48.2339" rx="24.1169" fill="#5A6ACE"/>
<g clip-path="url(#clip0_447_13300)">
<path d="M33.735 21.4549C33.6249 21.2231 33.391 21.0752 33.1343 21.0752H26.4646L30.5016 14.2435C30.623 14.038 30.6249 13.783 30.5066 13.5756C30.3882 13.3683 30.1678 13.2401 29.929 13.2402L24.2307 13.2409C23.9943 13.2409 23.7756 13.3665 23.6564 13.5707L16.1775 26.391C16.0575 26.5967 16.0567 26.8508 16.1753 27.0573C16.2939 27.2637 16.5138 27.3911 16.7519 27.3911H23.3791L21.4488 35.1122C21.3733 35.4143 21.5176 35.7284 21.796 35.8681C21.891 35.9156 21.9928 35.9385 22.0937 35.9385C22.2886 35.9385 22.4795 35.8529 22.6093 35.6938L33.6496 22.1605C33.8119 21.9616 33.8451 21.6869 33.735 21.4549Z" fill="white"/>
</g>
<defs>
<clipPath id="clip0_447_13300">
<rect width="22.6983" height="22.6983" fill="white" transform="translate(13.5938 13.2402)"/>
</clipPath>
</defs>
</svg>
