<svg width="20" height="21" viewBox="0 0 20 21" fill="none" xmlns="http://www.w3.org/2000/svg">
<path d="M17 3.56773H16V1.51834C16 1.24658 15.8946 0.985944 15.7071 0.793777C15.5196 0.601611 15.2652 0.493652 15 0.493652C14.7348 0.493652 14.4804 0.601611 14.2929 0.793777C14.1054 0.985944 14 1.24658 14 1.51834V3.56773H6V1.51834C6 1.24658 5.89464 0.985944 5.70711 0.793777C5.51957 0.601611 5.26522 0.493652 5 0.493652C4.73478 0.493652 4.48043 0.601611 4.29289 0.793777C4.10536 0.985944 4 1.24658 4 1.51834V3.56773H3C2.20435 3.56773 1.44129 3.8916 0.87868 4.4681C0.316071 5.0446 0 5.82651 0 6.6418V7.66649H20V6.6418C20 5.82651 19.6839 5.0446 19.1213 4.4681C18.5587 3.8916 17.7956 3.56773 17 3.56773Z" fill="#828282"/>
<path d="M0 17.9133C0 18.7286 0.316071 19.5105 0.87868 20.087C1.44129 20.6635 2.20435 20.9874 3 20.9874H17C17.7956 20.9874 18.5587 20.6635 19.1213 20.087C19.6839 19.5105 20 18.7286 20 17.9133V9.71582H0V17.9133Z" fill="#828282"/>
</svg>
