<svg width="49" height="49" viewBox="0 0 49 49" fill="none" xmlns="http://www.w3.org/2000/svg">
<rect x="0.353516" width="48.2339" height="48.2339" rx="24.1169" fill="#F4694C"/>
<path d="M27.883 27.3963L27.0782 28.2011C27.0263 28.2553 26.9638 28.2984 26.8946 28.3277C26.8254 28.357 26.751 28.3718 26.6758 28.3713C26.5245 28.37 26.3798 28.3088 26.2735 28.2011L23.9985 25.8951C23.9459 25.8422 23.9042 25.7794 23.8759 25.7104C23.8475 25.6413 23.8331 25.5674 23.8334 25.4928V20.1432C23.8334 19.9927 23.8932 19.8483 23.9996 19.7419C24.106 19.6355 24.2504 19.5757 24.4009 19.5757H25.5358C25.6859 19.5771 25.8294 19.6373 25.9355 19.7434C26.0417 19.8495 26.1019 19.9931 26.1032 20.1432V24.5539C26.1029 24.6285 26.1174 24.7025 26.1457 24.7715C26.174 24.8405 26.2157 24.9033 26.2683 24.9562L27.9088 26.5967C28.011 26.7064 28.0656 26.852 28.0608 27.0018C28.0559 27.1516 27.992 27.2935 27.883 27.3963ZM24.9425 15.6035C23.1652 15.6035 21.4277 16.1306 19.9499 17.118C18.4721 18.1055 17.3203 19.5089 16.6401 21.151C15.9599 22.7931 15.782 24.5999 16.1287 26.3432C16.4755 28.0864 17.3314 29.6876 18.5881 30.9444C19.8449 32.2012 21.4461 33.057 23.1894 33.4038C24.9326 33.7505 26.7394 33.5726 28.3815 32.8924C30.0236 32.2122 31.4271 31.0604 32.4145 29.5826C33.4019 28.1048 33.929 26.3673 33.929 24.59C33.929 22.2066 32.9822 19.9209 31.2969 18.2356C29.6116 16.5503 27.3259 15.6035 24.9425 15.6035Z" fill="white"/>
</svg>
