<svg width="50" height="48" viewBox="0 0 50 48" fill="none" xmlns="http://www.w3.org/2000/svg">
<rect width="50" height="48" rx="7" fill="#5A6ACE"/>
<path fill-rule="evenodd" clip-rule="evenodd" d="M25 21.5C26.3809 21.5 27.5 22.6191 27.5 24C27.5 25.3809 26.3809 26.5 25 26.5C23.6191 26.5 22.5 25.3809 22.5 24C22.5 22.6191 23.6191 21.5 25 21.5Z" stroke="white" stroke-width="1.5" stroke-linecap="round" stroke-linejoin="round"/>
<path fill-rule="evenodd" clip-rule="evenodd" d="M33.168 19.2502V19.2502C32.4845 18.058 30.9712 17.65 29.7885 18.3385C28.7598 18.9361 27.4741 18.1884 27.4741 16.9922C27.4741 15.6162 26.3659 14.5 24.9998 14.5V14.5C23.6337 14.5 22.5255 15.6162 22.5255 16.9922C22.5255 18.1884 21.2398 18.9361 20.212 18.3385C19.0283 17.65 17.5151 18.058 16.8315 19.2502C16.149 20.4425 16.554 21.9666 17.7377 22.6541C18.7655 23.2527 18.7655 24.7473 17.7377 25.3459C16.554 26.0343 16.149 27.5585 16.8315 28.7498C17.5151 29.942 19.0283 30.35 20.211 29.6625H20.212C21.2398 29.0639 22.5255 29.8116 22.5255 31.0078V31.0078C22.5255 32.3838 23.6337 33.5 24.9998 33.5V33.5C26.3659 33.5 27.4741 32.3838 27.4741 31.0078V31.0078C27.4741 29.8116 28.7598 29.0639 29.7885 29.6625C30.9712 30.35 32.4845 29.942 33.168 28.7498C33.8515 27.5585 33.4455 26.0343 32.2628 25.3459H32.2618C31.2341 24.7473 31.2341 23.2527 32.2628 22.6541C33.4455 21.9666 33.8515 20.4425 33.168 19.2502Z" stroke="white" stroke-width="1.5" stroke-linecap="round" stroke-linejoin="round"/>
</svg>
