<svg width="33" height="22" viewBox="0 0 33 22" fill="none" xmlns="http://www.w3.org/2000/svg">
<path d="M11.9287 14C15.7947 14 18.9287 10.866 18.9287 7C18.9287 3.13401 15.7947 0 11.9287 0C8.06272 0 4.92871 3.13401 4.92871 7C4.92871 10.866 8.06272 14 11.9287 14Z" fill="#828282"/>
<path d="M19.7067 13.223C19.4777 12.994 19.2337 12.78 18.9837 12.571C18.1437 13.64 17.0716 14.5041 15.8486 15.0981C14.6256 15.6921 13.2836 16.0004 11.924 15.9998C10.5644 15.9991 9.22273 15.6895 8.00032 15.0942C6.77791 14.499 5.70675 13.6338 4.86773 12.564C3.63107 13.5937 2.63692 14.8838 1.95621 16.342C1.2755 17.8002 0.925004 19.3907 0.929735 21C0.929735 21.2652 1.03509 21.5195 1.22263 21.7071C1.41016 21.8946 1.66452 22 1.92973 22H21.9297C22.195 22 22.4493 21.8946 22.6368 21.7071C22.8244 21.5195 22.9297 21.2652 22.9297 21C22.9333 19.555 22.6503 18.1236 22.0971 16.7887C21.5439 15.4538 20.7314 14.2418 19.7067 13.223Z" fill="#828282"/>
<path fill-rule="evenodd" clip-rule="evenodd" d="M32.189 8.2375C32.4125 8.35625 32.585 8.54375 32.7063 8.73125C32.9427 9.11875 32.9235 9.59375 32.6936 10.0125L32.2465 10.7625C32.0101 11.1625 31.5694 11.4125 31.1159 11.4125C30.8924 11.4125 30.6433 11.35 30.4389 11.225C30.2728 11.1188 30.0812 11.0813 29.8768 11.0813C29.2445 11.0813 28.7143 11.6 28.6951 12.2188C28.6951 12.9375 28.1075 13.5 27.373 13.5H26.5043C25.7634 13.5 25.1758 12.9375 25.1758 12.2188C25.163 11.6 24.6329 11.0813 24.0005 11.0813C23.7898 11.0813 23.5981 11.1188 23.4385 11.225C23.2341 11.35 22.9786 11.4125 22.7614 11.4125C22.3015 11.4125 21.8608 11.1625 21.6245 10.7625L21.1838 10.0125C20.9474 9.60625 20.9347 9.11875 21.171 8.73125C21.2732 8.54375 21.4648 8.35625 21.682 8.2375C21.8608 8.15 21.9758 8.00625 22.0844 7.8375C22.4037 7.3 22.2121 6.59375 21.6692 6.275C21.0369 5.91875 20.8325 5.125 21.1965 4.50625L21.6245 3.76875C21.9949 3.15 22.787 2.93125 23.4257 3.29375C23.9814 3.59375 24.7031 3.39375 25.0289 2.8625C25.1311 2.6875 25.1886 2.5 25.1758 2.3125C25.163 2.06875 25.2333 1.8375 25.3546 1.65C25.591 1.2625 26.0189 1.0125 26.4852 1H27.3858C27.8584 1 28.2864 1.2625 28.5227 1.65C28.6377 1.8375 28.7143 2.06875 28.6951 2.3125C28.6824 2.5 28.7399 2.6875 28.8421 2.8625C29.1678 3.39375 29.8896 3.59375 30.4516 3.29375C31.084 2.93125 31.8824 3.15 32.2465 3.76875L32.6744 4.50625C33.0449 5.125 32.8405 5.91875 32.2017 6.275C31.6588 6.59375 31.4672 7.3 31.793 7.8375C31.8952 8.00625 32.0101 8.15 32.189 8.2375ZM25.131 7.25625C25.131 8.2375 25.9422 9.01875 26.945 9.01875C27.9478 9.01875 28.7398 8.2375 28.7398 7.25625C28.7398 6.275 27.9478 5.4875 26.945 5.4875C25.9422 5.4875 25.131 6.275 25.131 7.25625Z" fill="#828282"/>
</svg>
