<svg width="24" height="25" viewBox="0 0 24 25" fill="none" xmlns="http://www.w3.org/2000/svg">
<path d="M6.75 14.1169H2.25C1.83579 14.1169 1.5 14.461 1.5 14.8855V22.5706C1.5 22.9951 1.83579 23.3392 2.25 23.3392H6.75C7.16421 23.3392 7.5 22.9951 7.5 22.5706V14.8855C7.5 14.461 7.16421 14.1169 6.75 14.1169Z" fill="#5D5FEF"/>
<path d="M21.75 7.96899H17.25C16.8358 7.96899 16.5 8.31307 16.5 8.73751V22.5708C16.5 22.9953 16.8358 23.3394 17.25 23.3394H21.75C22.1642 23.3394 22.5 22.9953 22.5 22.5708V8.73751C22.5 8.31307 22.1642 7.96899 21.75 7.96899Z" fill="#5D5FEF"/>
<path d="M14.25 1.8208H9.75C9.33579 1.8208 9 2.16488 9 2.58932V22.5708C9 22.9952 9.33579 23.3393 9.75 23.3393H14.25C14.6642 23.3393 15 22.9952 15 22.5708V2.58932C15 2.16488 14.6642 1.8208 14.25 1.8208Z" fill="#5D5FEF"/>
</svg>
