<svg width="50" height="50" viewBox="0 0 50 50" fill="none" xmlns="http://www.w3.org/2000/svg">
<rect width="50" height="50" rx="25" fill="#29305B" fill-opacity="0.15"/>
<path d="M24.1434 30.8829H17.6709" stroke="#29305B" stroke-width="1.5" stroke-linecap="round" stroke-linejoin="round"/>
<path fill-rule="evenodd" clip-rule="evenodd" d="M28.2051 30.8839C28.2051 32.9257 28.886 33.6057 30.9269 33.6057C32.9678 33.6057 33.6487 32.9257 33.6487 30.8839C33.6487 28.8421 32.9678 28.1621 30.9269 28.1621C28.886 28.1621 28.2051 28.8421 28.2051 30.8839Z" stroke="#29305B" stroke-width="1.5" stroke-linecap="round" stroke-linejoin="round"/>
<path d="M27.1768 20.3946H33.6484" stroke="#29305B" stroke-width="1.5" stroke-linecap="round" stroke-linejoin="round"/>
<path fill-rule="evenodd" clip-rule="evenodd" d="M23.1154 20.3937C23.1154 18.3528 22.4345 17.6719 20.3936 17.6719C18.3518 17.6719 17.6709 18.3528 17.6709 20.3937C17.6709 22.4355 18.3518 23.1155 20.3936 23.1155C22.4345 23.1155 23.1154 22.4355 23.1154 20.3937Z" stroke="#29305B" stroke-width="1.5" stroke-linecap="round" stroke-linejoin="round"/>
</svg>
