<svg width="50" height="50" viewBox="0 0 50 50" fill="none" xmlns="http://www.w3.org/2000/svg">
<rect x="0.5" y="0.5" width="49" height="49" rx="24.5" stroke="#29305B"/>
<path fill-rule="evenodd" clip-rule="evenodd" d="M34 19.6738C34 21.7024 32.3548 23.3476 30.3262 23.3476C28.2976 23.3476 26.6533 21.7024 26.6533 19.6738C26.6533 17.6452 28.2976 16 30.3262 16C32.3548 16 34 17.6452 34 19.6738Z" stroke="#29305B" stroke-width="1.5" stroke-linecap="round" stroke-linejoin="round"/>
<path fill-rule="evenodd" clip-rule="evenodd" d="M23.3467 19.6738C23.3467 21.7024 21.7024 23.3476 19.6729 23.3476C17.6452 23.3476 16 21.7024 16 19.6738C16 17.6452 17.6452 16 19.6729 16C21.7024 16 23.3467 17.6452 23.3467 19.6738Z" stroke="#29305B" stroke-width="1.5" stroke-linecap="round" stroke-linejoin="round"/>
<path fill-rule="evenodd" clip-rule="evenodd" d="M34 30.2617C34 32.2903 32.3548 33.9346 30.3262 33.9346C28.2976 33.9346 26.6533 32.2903 26.6533 30.2617C26.6533 28.2331 28.2976 26.5879 30.3262 26.5879C32.3548 26.5879 34 28.2331 34 30.2617Z" stroke="#29305B" stroke-width="1.5" stroke-linecap="round" stroke-linejoin="round"/>
<path fill-rule="evenodd" clip-rule="evenodd" d="M23.3467 30.2617C23.3467 32.2903 21.7024 33.9346 19.6729 33.9346C17.6452 33.9346 16 32.2903 16 30.2617C16 28.2331 17.6452 26.5879 19.6729 26.5879C21.7024 26.5879 23.3467 28.2331 23.3467 30.2617Z" stroke="#29305B" stroke-width="1.5" stroke-linecap="round" stroke-linejoin="round"/>
</svg>
