<svg width="38" height="38" viewBox="0 0 38 38" fill="none" xmlns="http://www.w3.org/2000/svg">
<path d="M34.6055 19.2614C34.6055 28.0636 27.5304 35.1992 18.8028 35.1992C10.0751 35.1992 3 28.0636 3 19.2614C3 10.4593 10.0751 3.32373 18.8028 3.32373C27.5304 3.32373 34.6055 10.4593 34.6055 19.2614Z" stroke="#5A6ACE" stroke-opacity="0.15" stroke-width="5"/>
<path d="M18.8028 3.32373C21.9836 3.32373 25.0903 4.29179 27.7168 6.10131C30.3432 7.91084 32.3671 10.4776 33.5237 13.4659C34.6804 16.4542 34.9159 19.725 34.1996 22.8506C33.4833 25.9761 31.8485 28.8109 29.5089 30.9842C27.1693 33.1576 24.2339 34.5683 21.0865 35.0319C17.9391 35.4954 14.7263 34.9903 11.8681 33.5826C9.00994 32.1749 6.63952 29.9301 5.06682 27.1417C3.49412 24.3533 2.79234 21.1512 3.05327 17.954" stroke="#5A6ACE" stroke-width="5" stroke-linecap="round"/>
<path d="M14.4654 18.136H11.8734V19.504C11.9854 19.3653 12.1454 19.2533 12.3534 19.168C12.5614 19.0773 12.7828 19.032 13.0174 19.032C13.4441 19.032 13.7934 19.1253 14.0654 19.312C14.3374 19.4987 14.5348 19.7387 14.6574 20.032C14.7801 20.32 14.8414 20.6293 14.8414 20.96C14.8414 21.5733 14.6654 22.0667 14.3134 22.44C13.9668 22.8133 13.4708 23 12.8254 23C12.2174 23 11.7321 22.848 11.3694 22.544C11.0068 22.24 10.8014 21.8427 10.7534 21.352H11.8414C11.8894 21.5653 11.9961 21.736 12.1614 21.864C12.3321 21.992 12.5481 22.056 12.8094 22.056C13.1241 22.056 13.3614 21.9573 13.5214 21.76C13.6814 21.5627 13.7614 21.3013 13.7614 20.976C13.7614 20.6453 13.6788 20.3947 13.5134 20.224C13.3534 20.048 13.1161 19.96 12.8014 19.96C12.5774 19.96 12.3908 20.016 12.2414 20.128C12.0921 20.24 11.9854 20.3893 11.9214 20.576H10.8494V17.152H14.4654V18.136ZM15.6939 20.008C15.6939 19.0853 15.8592 18.3627 16.1899 17.84C16.5259 17.3173 17.0805 17.056 17.8539 17.056C18.6272 17.056 19.1792 17.3173 19.5099 17.84C19.8459 18.3627 20.0139 19.0853 20.0139 20.008C20.0139 20.936 19.8459 21.664 19.5099 22.192C19.1792 22.72 18.6272 22.984 17.8539 22.984C17.0805 22.984 16.5259 22.72 16.1899 22.192C15.8592 21.664 15.6939 20.936 15.6939 20.008ZM18.9099 20.008C18.9099 19.6133 18.8832 19.2827 18.8299 19.016C18.7819 18.744 18.6805 18.5227 18.5259 18.352C18.3765 18.1813 18.1525 18.096 17.8539 18.096C17.5552 18.096 17.3285 18.1813 17.1739 18.352C17.0245 18.5227 16.9232 18.744 16.8699 19.016C16.8219 19.2827 16.7979 19.6133 16.7979 20.008C16.7979 20.4133 16.8219 20.7547 16.8699 21.032C16.9179 21.304 17.0192 21.5253 17.1739 21.696C17.3285 21.8613 17.5552 21.944 17.8539 21.944C18.1525 21.944 18.3792 21.8613 18.5339 21.696C18.6885 21.5253 18.7899 21.304 18.8379 21.032C18.8859 20.7547 18.9099 20.4133 18.9099 20.008ZM22.644 18.6C22.644 18.1947 22.7613 17.8773 22.996 17.648C23.236 17.4187 23.5427 17.304 23.916 17.304C24.2893 17.304 24.5933 17.4187 24.828 17.648C25.068 17.8773 25.188 18.1947 25.188 18.6C25.188 19.0107 25.068 19.3307 24.828 19.56C24.5933 19.7893 24.2893 19.904 23.916 19.904C23.5427 19.904 23.236 19.7893 22.996 19.56C22.7613 19.3307 22.644 19.0107 22.644 18.6ZM27.78 17.4L24.636 23H23.548L26.684 17.4H27.78ZM23.908 17.976C23.6147 17.976 23.468 18.184 23.468 18.6C23.468 19.0213 23.6147 19.232 23.908 19.232C24.052 19.232 24.164 19.1813 24.244 19.08C24.324 18.9733 24.364 18.8133 24.364 18.6C24.364 18.184 24.212 17.976 23.908 17.976ZM26.156 21.792C26.156 21.3813 26.2733 21.064 26.508 20.84C26.748 20.6107 27.0547 20.496 27.428 20.496C27.8013 20.496 28.1027 20.6107 28.332 20.84C28.5667 21.064 28.684 21.3813 28.684 21.792C28.684 22.2027 28.5667 22.5227 28.332 22.752C28.1027 22.9813 27.8013 23.096 27.428 23.096C27.0493 23.096 26.7427 22.9813 26.508 22.752C26.2733 22.5227 26.156 22.2027 26.156 21.792ZM27.42 21.168C27.116 21.168 26.964 21.376 26.964 21.792C26.964 22.2133 27.116 22.424 27.42 22.424C27.7187 22.424 27.868 22.2133 27.868 21.792C27.868 21.376 27.7187 21.168 27.42 21.168Z" fill="#5A6ACE"/>
</svg>
