<svg width="37" height="38" viewBox="0 0 37 38" fill="none" xmlns="http://www.w3.org/2000/svg">
<path d="M34.2794 19.2614C34.2794 28.0636 27.2042 35.1992 18.4766 35.1992C9.74897 35.1992 2.67383 28.0636 2.67383 19.2614C2.67383 10.4593 9.74897 3.32373 18.4766 3.32373C27.2042 3.32373 34.2794 10.4593 34.2794 19.2614Z" stroke="#EEEFF3" stroke-width="5"/>
<path d="M18.4766 3.32373C21.6574 3.32373 24.7641 4.29179 27.3906 6.10131C30.017 7.91084 32.0409 10.4776 33.1975 13.4659C34.3542 16.4542 34.5898 19.725 33.8735 22.8506C33.1572 25.9761 31.5223 28.8109 29.1827 30.9842C26.8431 33.1576 23.9077 34.5683 20.7603 35.0319C17.6129 35.4954 14.4001 34.9903 11.5419 33.5826C8.68377 32.1749 6.31335 29.9301 4.74065 27.1417C3.16795 24.3533 2.46617 21.1512 2.7271 17.954" stroke="#40B2B7" stroke-width="5" stroke-linecap="round"/>
<path d="M10.4159 18.704C10.4426 18.1707 10.6293 17.76 10.9759 17.472C11.3279 17.1787 11.7893 17.032 12.3599 17.032C12.7493 17.032 13.0826 17.1013 13.3599 17.24C13.6373 17.3733 13.8453 17.5573 13.9839 17.792C14.1279 18.0213 14.1999 18.2827 14.1999 18.576C14.1999 18.912 14.1119 19.1973 13.9359 19.432C13.7653 19.6613 13.5599 19.816 13.3199 19.896V19.928C13.6293 20.024 13.8693 20.1947 14.0399 20.44C14.2159 20.6853 14.3039 21 14.3039 21.384C14.3039 21.704 14.2293 21.9893 14.0799 22.24C13.9359 22.4907 13.7199 22.688 13.4319 22.832C13.1493 22.9707 12.8079 23.04 12.4079 23.04C11.8053 23.04 11.3146 22.888 10.9359 22.584C10.5573 22.28 10.3573 21.832 10.3359 21.24H11.4239C11.4346 21.5013 11.5226 21.712 11.6879 21.872C11.8586 22.0267 12.0906 22.104 12.3839 22.104C12.6559 22.104 12.8639 22.0293 13.0079 21.88C13.1573 21.7253 13.2319 21.528 13.2319 21.288C13.2319 20.968 13.1306 20.7387 12.9279 20.6C12.7253 20.4613 12.4106 20.392 11.9839 20.392H11.7519V19.472H11.9839C12.7413 19.472 13.1199 19.2187 13.1199 18.712C13.1199 18.4827 13.0506 18.304 12.9119 18.176C12.7786 18.048 12.5839 17.984 12.3279 17.984C12.0773 17.984 11.8826 18.0533 11.7439 18.192C11.6106 18.3253 11.5333 18.496 11.5119 18.704H10.4159ZM15.189 20.008C15.189 19.0853 15.3543 18.3627 15.685 17.84C16.021 17.3173 16.5757 17.056 17.349 17.056C18.1223 17.056 18.6743 17.3173 19.005 17.84C19.341 18.3627 19.509 19.0853 19.509 20.008C19.509 20.936 19.341 21.664 19.005 22.192C18.6743 22.72 18.1223 22.984 17.349 22.984C16.5757 22.984 16.021 22.72 15.685 22.192C15.3543 21.664 15.189 20.936 15.189 20.008ZM18.405 20.008C18.405 19.6133 18.3783 19.2827 18.325 19.016C18.277 18.744 18.1757 18.5227 18.021 18.352C17.8717 18.1813 17.6477 18.096 17.349 18.096C17.0503 18.096 16.8237 18.1813 16.669 18.352C16.5197 18.5227 16.4183 18.744 16.365 19.016C16.317 19.2827 16.293 19.6133 16.293 20.008C16.293 20.4133 16.317 20.7547 16.365 21.032C16.413 21.304 16.5143 21.5253 16.669 21.696C16.8237 21.8613 17.0503 21.944 17.349 21.944C17.6477 21.944 17.8743 21.8613 18.029 21.696C18.1837 21.5253 18.285 21.304 18.333 21.032C18.381 20.7547 18.405 20.4133 18.405 20.008ZM22.1391 18.6C22.1391 18.1947 22.2564 17.8773 22.4911 17.648C22.7311 17.4187 23.0378 17.304 23.4111 17.304C23.7844 17.304 24.0884 17.4187 24.3231 17.648C24.5631 17.8773 24.6831 18.1947 24.6831 18.6C24.6831 19.0107 24.5631 19.3307 24.3231 19.56C24.0884 19.7893 23.7844 19.904 23.4111 19.904C23.0378 19.904 22.7311 19.7893 22.4911 19.56C22.2564 19.3307 22.1391 19.0107 22.1391 18.6ZM27.2751 17.4L24.1311 23H23.0431L26.1791 17.4H27.2751ZM23.4031 17.976C23.1098 17.976 22.9631 18.184 22.9631 18.6C22.9631 19.0213 23.1098 19.232 23.4031 19.232C23.5471 19.232 23.6591 19.1813 23.7391 19.08C23.8191 18.9733 23.8591 18.8133 23.8591 18.6C23.8591 18.184 23.7071 17.976 23.4031 17.976ZM25.6511 21.792C25.6511 21.3813 25.7684 21.064 26.0031 20.84C26.2431 20.6107 26.5498 20.496 26.9231 20.496C27.2964 20.496 27.5978 20.6107 27.8271 20.84C28.0618 21.064 28.1791 21.3813 28.1791 21.792C28.1791 22.2027 28.0618 22.5227 27.8271 22.752C27.5978 22.9813 27.2964 23.096 26.9231 23.096C26.5444 23.096 26.2378 22.9813 26.0031 22.752C25.7684 22.5227 25.6511 22.2027 25.6511 21.792ZM26.9151 21.168C26.6111 21.168 26.4591 21.376 26.4591 21.792C26.4591 22.2133 26.6111 22.424 26.9151 22.424C27.2138 22.424 27.3631 22.2133 27.3631 21.792C27.3631 21.376 27.2138 21.168 26.9151 21.168Z" fill="#40B2B7"/>
</svg>
