<svg width="60" height="60" viewBox="0 0 60 60" fill="none" xmlns="http://www.w3.org/2000/svg">
<rect x="0.335938" y="0.0251465" width="59" height="59" rx="29.5" fill="#5A6ACE"/>
<path d="M29.8359 13.0251C26.5725 13.0251 23.3824 13.9929 20.669 15.8059C17.9556 17.6189 15.8408 20.1959 14.5919 23.2109C13.3431 26.2259 13.0163 29.5434 13.653 32.7441C14.2896 35.9448 15.8611 38.8848 18.1687 41.1924C20.4762 43.5 23.4163 45.0714 26.6169 45.7081C29.8176 46.3448 33.1352 46.018 36.1502 44.7692C39.1652 43.5203 41.7421 41.4055 43.5552 38.6921C45.3682 35.9786 46.3359 32.7885 46.3359 29.5251H38.0477C38.0477 31.1493 37.5661 32.7369 36.6638 34.0874C35.7615 35.4378 34.479 36.4903 32.9785 37.1118C31.4779 37.7334 29.8268 37.896 28.2339 37.5791C26.641 37.2623 25.1778 36.4802 24.0293 35.3318C22.8809 34.1833 22.0988 32.7201 21.7819 31.1272C21.4651 29.5343 21.6277 27.8831 22.2492 26.3826C22.8708 24.8821 23.9233 23.5996 25.2737 22.6973C26.6241 21.795 28.2118 21.3134 29.8359 21.3134V13.0251Z" fill="white"/>
</svg>
