<svg width="21" height="20" viewBox="0 0 21 20" fill="none" xmlns="http://www.w3.org/2000/svg">
<path fill-rule="evenodd" clip-rule="evenodd" d="M19.336 4.69895C19.336 6.72755 17.6908 8.37275 15.6622 8.37275C13.6336 8.37275 11.9893 6.72755 11.9893 4.69895C11.9893 2.67035 13.6336 1.02515 15.6622 1.02515C17.6908 1.02515 19.336 2.67035 19.336 4.69895Z" stroke="#828282" stroke-width="1.5" stroke-linecap="round" stroke-linejoin="round"/>
<path fill-rule="evenodd" clip-rule="evenodd" d="M8.68264 4.69895C8.68264 6.72755 7.03834 8.37275 5.00884 8.37275C2.98114 8.37275 1.33594 6.72755 1.33594 4.69895C1.33594 2.67035 2.98114 1.02515 5.00884 1.02515C7.03834 1.02515 8.68264 2.67035 8.68264 4.69895Z" stroke="#828282" stroke-width="1.5" stroke-linecap="round" stroke-linejoin="round"/>
<path fill-rule="evenodd" clip-rule="evenodd" d="M19.336 15.2871C19.336 17.3157 17.6908 18.96 15.6622 18.96C13.6336 18.96 11.9893 17.3157 11.9893 15.2871C11.9893 13.2585 13.6336 11.6133 15.6622 11.6133C17.6908 11.6133 19.336 13.2585 19.336 15.2871Z" stroke="#828282" stroke-width="1.5" stroke-linecap="round" stroke-linejoin="round"/>
<path fill-rule="evenodd" clip-rule="evenodd" d="M8.68264 15.2871C8.68264 17.3157 7.03834 18.96 5.00884 18.96C2.98114 18.96 1.33594 17.3157 1.33594 15.2871C1.33594 13.2585 2.98114 11.6133 5.00884 11.6133C7.03834 11.6133 8.68264 13.2585 8.68264 15.2871Z" stroke="#828282" stroke-width="1.5" stroke-linecap="round" stroke-linejoin="round"/>
</svg>
