<svg width="20" height="26" viewBox="0 0 20 26" fill="none" xmlns="http://www.w3.org/2000/svg">
<path d="M19.2959 9.34472C19.1795 9.09351 18.9322 8.93327 18.6607 8.93327H11.6086L15.877 1.53148C16.0055 1.30875 16.0075 1.03247 15.8823 0.807823C15.7572 0.583176 15.5241 0.444362 15.2716 0.444458L9.24658 0.445131C8.99655 0.445227 8.76531 0.581254 8.63936 0.80254L0.731547 14.6927C0.604656 14.9156 0.603766 15.1909 0.729156 15.4146C0.854547 15.6383 1.08709 15.7763 1.33886 15.7763H8.34611L6.30517 24.1418C6.2253 24.4691 6.37787 24.8094 6.67225 24.9607C6.77266 25.0122 6.88033 25.037 6.98697 25.037C7.19303 25.037 7.39497 24.9443 7.53212 24.7719L19.2056 10.1092C19.3772 9.89363 19.4124 9.59602 19.2959 9.34472Z" fill="#828282"/>
</svg>
