<svg width="1402" height="53" viewBox="0 0 1402 53" fill="none" xmlns="http://www.w3.org/2000/svg">
<path d="M4.768 33.112C4.032 33.112 3.37067 32.984 2.784 32.728C2.208 32.4613 1.75467 32.0987 1.424 31.64C1.09333 31.1707 0.922667 30.632 0.912 30.024H2.464C2.51733 30.5467 2.73067 30.9893 3.104 31.352C3.488 31.704 4.04267 31.88 4.768 31.88C5.46133 31.88 6.00533 31.7093 6.4 31.368C6.80533 31.016 7.008 30.568 7.008 30.024C7.008 29.5973 6.89067 29.2507 6.656 28.984C6.42133 28.7173 6.128 28.5147 5.776 28.376C5.424 28.2373 4.94933 28.088 4.352 27.928C3.616 27.736 3.024 27.544 2.576 27.352C2.13867 27.16 1.76 26.8613 1.44 26.456C1.13067 26.04 0.976 25.4853 0.976 24.792C0.976 24.184 1.13067 23.6453 1.44 23.176C1.74933 22.7067 2.18133 22.344 2.736 22.088C3.30133 21.832 3.94667 21.704 4.672 21.704C5.71733 21.704 6.57067 21.9653 7.232 22.488C7.904 23.0107 8.28267 23.704 8.368 24.568H6.768C6.71467 24.1413 6.49067 23.768 6.096 23.448C5.70133 23.1173 5.17867 22.952 4.528 22.952C3.92 22.952 3.424 23.112 3.04 23.432C2.656 23.7413 2.464 24.1787 2.464 24.744C2.464 25.1493 2.576 25.48 2.8 25.736C3.03467 25.992 3.31733 26.1893 3.648 26.328C3.98933 26.456 4.464 26.6053 5.072 26.776C5.808 26.9787 6.4 27.1813 6.848 27.384C7.296 27.576 7.68 27.88 8 28.296C8.32 28.7013 8.48 29.256 8.48 29.96C8.48 30.504 8.336 31.016 8.048 31.496C7.76 31.976 7.33333 32.3653 6.768 32.664C6.20267 32.9627 5.536 33.112 4.768 33.112ZM14.9746 24.072C15.636 24.072 16.2333 24.216 16.7666 24.504C17.3 24.7813 17.716 25.2027 18.0146 25.768C18.324 26.3333 18.4786 27.0213 18.4786 27.832V33H17.0386V28.04C17.0386 27.1653 16.82 26.4987 16.3826 26.04C15.9453 25.5707 15.348 25.336 14.5906 25.336C13.8226 25.336 13.2093 25.576 12.7506 26.056C12.3026 26.536 12.0786 27.2347 12.0786 28.152V33H10.6226V21.16H12.0786V25.48C12.3666 25.032 12.7613 24.6853 13.2626 24.44C13.7746 24.1947 14.3453 24.072 14.9746 24.072ZM24.681 33.144C23.8597 33.144 23.113 32.9573 22.441 32.584C21.7797 32.2107 21.257 31.6827 20.873 31C20.4997 30.3067 20.313 29.5067 20.313 28.6C20.313 27.704 20.505 26.9147 20.889 26.232C21.2837 25.5387 21.817 25.0107 22.489 24.648C23.161 24.2747 23.913 24.088 24.745 24.088C25.577 24.088 26.329 24.2747 27.001 24.648C27.673 25.0107 28.201 25.5333 28.585 26.216C28.9797 26.8987 29.177 27.6933 29.177 28.6C29.177 29.5067 28.9743 30.3067 28.569 31C28.1743 31.6827 27.6357 32.2107 26.953 32.584C26.2703 32.9573 25.513 33.144 24.681 33.144ZM24.681 31.864C25.2037 31.864 25.6943 31.7413 26.153 31.496C26.6117 31.2507 26.9797 30.8827 27.257 30.392C27.545 29.9013 27.689 29.304 27.689 28.6C27.689 27.896 27.5503 27.2987 27.273 26.808C26.9957 26.3173 26.633 25.9547 26.185 25.72C25.737 25.4747 25.2517 25.352 24.729 25.352C24.1957 25.352 23.705 25.4747 23.257 25.72C22.8197 25.9547 22.4677 26.3173 22.201 26.808C21.9343 27.2987 21.801 27.896 21.801 28.6C21.801 29.3147 21.929 29.9173 22.185 30.408C22.4517 30.8987 22.8037 31.2667 23.241 31.512C23.6783 31.7467 24.1583 31.864 24.681 31.864ZM42.7714 24.232L40.0354 33H38.5314L36.4194 26.04L34.3074 33H32.8034L30.0514 24.232H31.5394L33.5554 31.592L35.7314 24.232H37.2194L39.3474 31.608L41.3314 24.232H42.7714ZM44.9684 22.808C44.691 22.808 44.4564 22.712 44.2644 22.52C44.0724 22.328 43.9764 22.0933 43.9764 21.816C43.9764 21.5387 44.0724 21.304 44.2644 21.112C44.4564 20.92 44.691 20.824 44.9684 20.824C45.235 20.824 45.459 20.92 45.6404 21.112C45.8324 21.304 45.9284 21.5387 45.9284 21.816C45.9284 22.0933 45.8324 22.328 45.6404 22.52C45.459 22.712 45.235 22.808 44.9684 22.808ZM45.6724 24.232V33H44.2164V24.232H45.6724ZM52.4259 24.072C53.4925 24.072 54.3565 24.3973 55.0179 25.048C55.6792 25.688 56.0099 26.616 56.0099 27.832V33H54.5699V28.04C54.5699 27.1653 54.3512 26.4987 53.9139 26.04C53.4765 25.5707 52.8792 25.336 52.1219 25.336C51.3539 25.336 50.7405 25.576 50.2819 26.056C49.8339 26.536 49.6099 27.2347 49.6099 28.152V33H48.1539V24.232H49.6099V25.48C49.8979 25.032 50.2872 24.6853 50.7779 24.44C51.2792 24.1947 51.8285 24.072 52.4259 24.072ZM62.0043 24.088C62.7616 24.088 63.4229 24.2533 63.9883 24.584C64.5643 24.9147 64.9909 25.3307 65.2683 25.832V24.232H66.7403V33.192C66.7403 33.992 66.5696 34.7013 66.2283 35.32C65.8869 35.9493 65.3963 36.44 64.7563 36.792C64.1269 37.144 63.3909 37.32 62.5483 37.32C61.3963 37.32 60.4363 37.048 59.6683 36.504C58.9003 35.96 58.4469 35.2187 58.3083 34.28H59.7483C59.9083 34.8133 60.2389 35.24 60.7403 35.56C61.2416 35.8907 61.8443 36.056 62.5483 36.056C63.3483 36.056 63.9989 35.8053 64.5003 35.304C65.0123 34.8027 65.2683 34.0987 65.2683 33.192V31.352C64.9803 31.864 64.5536 32.2907 63.9883 32.632C63.4229 32.9733 62.7616 33.144 62.0043 33.144C61.2256 33.144 60.5163 32.952 59.8763 32.568C59.2469 32.184 58.7509 31.6453 58.3883 30.952C58.0256 30.2587 57.8443 29.4693 57.8443 28.584C57.8443 27.688 58.0256 26.904 58.3883 26.232C58.7509 25.5493 59.2469 25.0213 59.8763 24.648C60.5163 24.2747 61.2256 24.088 62.0043 24.088ZM65.2683 28.6C65.2683 27.9387 65.1349 27.3627 64.8683 26.872C64.6016 26.3813 64.2389 26.008 63.7803 25.752C63.3323 25.4853 62.8363 25.352 62.2923 25.352C61.7483 25.352 61.2523 25.48 60.8043 25.736C60.3563 25.992 59.9989 26.3653 59.7323 26.856C59.4656 27.3467 59.3323 27.9227 59.3323 28.584C59.3323 29.256 59.4656 29.8427 59.7323 30.344C59.9989 30.8347 60.3563 31.2133 60.8043 31.48C61.2523 31.736 61.7483 31.864 62.2923 31.864C62.8363 31.864 63.3323 31.736 63.7803 31.48C64.2389 31.2133 64.6016 30.8347 64.8683 30.344C65.1349 29.8427 65.2683 29.2613 65.2683 28.6ZM72.8424 22.76V21.432H75.8504V33H74.3784V22.76H72.8424ZM78.3514 27.096C78.3514 25.2613 78.65 23.832 79.2474 22.808C79.8447 21.7733 80.89 21.256 82.3834 21.256C83.866 21.256 84.906 21.7733 85.5034 22.808C86.1007 23.832 86.3994 25.2613 86.3994 27.096C86.3994 28.9627 86.1007 30.4133 85.5034 31.448C84.906 32.4827 83.866 33 82.3834 33C80.89 33 79.8447 32.4827 79.2474 31.448C78.65 30.4133 78.3514 28.9627 78.3514 27.096ZM84.9594 27.096C84.9594 26.168 84.8954 25.384 84.7674 24.744C84.65 24.0933 84.3994 23.5707 84.0154 23.176C83.642 22.7813 83.098 22.584 82.3834 22.584C81.658 22.584 81.1034 22.7813 80.7194 23.176C80.346 23.5707 80.0954 24.0933 79.9674 24.744C79.85 25.384 79.7914 26.168 79.7914 27.096C79.7914 28.056 79.85 28.8613 79.9674 29.512C80.0954 30.1627 80.346 30.6853 80.7194 31.08C81.1034 31.4747 81.658 31.672 82.3834 31.672C83.098 31.672 83.642 31.4747 84.0154 31.08C84.3994 30.6853 84.65 30.1627 84.7674 29.512C84.8954 28.8613 84.9594 28.056 84.9594 27.096ZM96.4719 25.432H94.6319V33H93.1759V25.432H92.0399V24.232H93.1759V23.608C93.1759 22.6267 93.4265 21.912 93.9279 21.464C94.4399 21.0053 95.2559 20.776 96.3759 20.776V21.992C95.7359 21.992 95.2825 22.12 95.0159 22.376C94.7599 22.6213 94.6319 23.032 94.6319 23.608V24.232H96.4719V25.432ZM99.6255 25.656C99.8815 25.1547 100.244 24.7653 100.714 24.488C101.194 24.2107 101.775 24.072 102.458 24.072V25.576H102.074C100.442 25.576 99.6255 26.4613 99.6255 28.232V33H98.1695V24.232H99.6255V25.656ZM107.962 33.144C107.141 33.144 106.394 32.9573 105.722 32.584C105.061 32.2107 104.538 31.6827 104.154 31C103.781 30.3067 103.594 29.5067 103.594 28.6C103.594 27.704 103.786 26.9147 104.17 26.232C104.565 25.5387 105.098 25.0107 105.77 24.648C106.442 24.2747 107.194 24.088 108.026 24.088C108.858 24.088 109.61 24.2747 110.282 24.648C110.954 25.0107 111.482 25.5333 111.866 26.216C112.261 26.8987 112.458 27.6933 112.458 28.6C112.458 29.5067 112.256 30.3067 111.85 31C111.456 31.6827 110.917 32.2107 110.234 32.584C109.552 32.9573 108.794 33.144 107.962 33.144ZM107.962 31.864C108.485 31.864 108.976 31.7413 109.434 31.496C109.893 31.2507 110.261 30.8827 110.538 30.392C110.826 29.9013 110.97 29.304 110.97 28.6C110.97 27.896 110.832 27.2987 110.554 26.808C110.277 26.3173 109.914 25.9547 109.466 25.72C109.018 25.4747 108.533 25.352 108.01 25.352C107.477 25.352 106.986 25.4747 106.538 25.72C106.101 25.9547 105.749 26.3173 105.482 26.808C105.216 27.2987 105.082 27.896 105.082 28.6C105.082 29.3147 105.21 29.9173 105.466 30.408C105.733 30.8987 106.085 31.2667 106.522 31.512C106.96 31.7467 107.44 31.864 107.962 31.864ZM124.917 24.072C125.599 24.072 126.207 24.216 126.741 24.504C127.274 24.7813 127.695 25.2027 128.005 25.768C128.314 26.3333 128.469 27.0213 128.469 27.832V33H127.029V28.04C127.029 27.1653 126.81 26.4987 126.373 26.04C125.946 25.5707 125.365 25.336 124.629 25.336C123.871 25.336 123.269 25.5813 122.821 26.072C122.373 26.552 122.149 27.2507 122.149 28.168V33H120.709V28.04C120.709 27.1653 120.49 26.4987 120.053 26.04C119.626 25.5707 119.045 25.336 118.309 25.336C117.551 25.336 116.949 25.5813 116.501 26.072C116.053 26.552 115.829 27.2507 115.829 28.168V33H114.373V24.232H115.829V25.496C116.117 25.0373 116.501 24.6853 116.981 24.44C117.471 24.1947 118.01 24.072 118.597 24.072C119.333 24.072 119.983 24.2373 120.549 24.568C121.114 24.8987 121.535 25.384 121.813 26.024C122.058 25.4053 122.463 24.9253 123.029 24.584C123.594 24.2427 124.223 24.072 124.917 24.072ZM134.499 22.76V21.432H137.507V33H136.035V22.76H134.499ZM146.456 24.184C146.221 23 145.49 22.408 144.264 22.408C143.314 22.408 142.605 22.776 142.136 23.512C141.666 24.2373 141.437 25.4373 141.448 27.112C141.693 26.5573 142.098 26.1253 142.664 25.816C143.24 25.496 143.88 25.336 144.584 25.336C145.682 25.336 146.557 25.6773 147.208 26.36C147.869 27.0427 148.2 27.9867 148.2 29.192C148.2 29.9173 148.056 30.568 147.768 31.144C147.49 31.72 147.064 32.1787 146.488 32.52C145.922 32.8613 145.234 33.032 144.424 33.032C143.325 33.032 142.466 32.7867 141.848 32.296C141.229 31.8053 140.797 31.128 140.552 30.264C140.306 29.4 140.184 28.3333 140.184 27.064C140.184 23.1493 141.549 21.192 144.28 21.192C145.325 21.192 146.146 21.4747 146.744 22.04C147.341 22.6053 147.693 23.32 147.8 24.184H146.456ZM144.28 26.568C143.821 26.568 143.389 26.664 142.984 26.856C142.578 27.0373 142.248 27.32 141.992 27.704C141.746 28.0773 141.624 28.536 141.624 29.08C141.624 29.8907 141.858 30.552 142.328 31.064C142.797 31.5653 143.469 31.816 144.344 31.816C145.09 31.816 145.682 31.5867 146.12 31.128C146.568 30.6587 146.792 30.0293 146.792 29.24C146.792 28.408 146.578 27.7573 146.152 27.288C145.725 26.808 145.101 26.568 144.28 26.568ZM150.164 27.096C150.164 25.2613 150.463 23.832 151.06 22.808C151.657 21.7733 152.703 21.256 154.196 21.256C155.679 21.256 156.719 21.7733 157.316 22.808C157.913 23.832 158.212 25.2613 158.212 27.096C158.212 28.9627 157.913 30.4133 157.316 31.448C156.719 32.4827 155.679 33 154.196 33C152.703 33 151.657 32.4827 151.06 31.448C150.463 30.4133 150.164 28.9627 150.164 27.096ZM156.772 27.096C156.772 26.168 156.708 25.384 156.58 24.744C156.463 24.0933 156.212 23.5707 155.828 23.176C155.455 22.7813 154.911 22.584 154.196 22.584C153.471 22.584 152.916 22.7813 152.532 23.176C152.159 23.5707 151.908 24.0933 151.78 24.744C151.663 25.384 151.604 26.168 151.604 27.096C151.604 28.056 151.663 28.8613 151.78 29.512C151.908 30.1627 152.159 30.6853 152.532 31.08C152.916 31.4747 153.471 31.672 154.196 31.672C154.911 31.672 155.455 31.4747 155.828 31.08C156.212 30.6853 156.463 30.1627 156.58 29.512C156.708 28.8613 156.772 28.056 156.772 27.096ZM164.172 28.584C164.172 27.688 164.354 26.904 164.716 26.232C165.079 25.5493 165.575 25.0213 166.204 24.648C166.844 24.2747 167.559 24.088 168.348 24.088C169.031 24.088 169.666 24.248 170.252 24.568C170.839 24.8773 171.287 25.288 171.596 25.8V21.16H173.068V33H171.596V31.352C171.308 31.8747 170.882 32.3067 170.316 32.648C169.751 32.9787 169.09 33.144 168.332 33.144C167.554 33.144 166.844 32.952 166.204 32.568C165.575 32.184 165.079 31.6453 164.716 30.952C164.354 30.2587 164.172 29.4693 164.172 28.584ZM171.596 28.6C171.596 27.9387 171.463 27.3627 171.196 26.872C170.93 26.3813 170.567 26.008 170.108 25.752C169.66 25.4853 169.164 25.352 168.62 25.352C168.076 25.352 167.58 25.48 167.132 25.736C166.684 25.992 166.327 26.3653 166.06 26.856C165.794 27.3467 165.66 27.9227 165.66 28.584C165.66 29.256 165.794 29.8427 166.06 30.344C166.327 30.8347 166.684 31.2133 167.132 31.48C167.58 31.736 168.076 31.864 168.62 31.864C169.164 31.864 169.66 31.736 170.108 31.48C170.567 31.2133 170.93 30.8347 171.196 30.344C171.463 29.8427 171.596 29.2613 171.596 28.6ZM174.985 28.584C174.985 27.688 175.166 26.904 175.529 26.232C175.892 25.5493 176.388 25.0213 177.017 24.648C177.657 24.2747 178.366 24.088 179.145 24.088C179.913 24.088 180.58 24.2533 181.145 24.584C181.71 24.9147 182.132 25.3307 182.409 25.832V24.232H183.881V33H182.409V31.368C182.121 31.88 181.689 32.3067 181.113 32.648C180.548 32.9787 179.886 33.144 179.129 33.144C178.35 33.144 177.646 32.952 177.017 32.568C176.388 32.184 175.892 31.6453 175.529 30.952C175.166 30.2587 174.985 29.4693 174.985 28.584ZM182.409 28.6C182.409 27.9387 182.276 27.3627 182.009 26.872C181.742 26.3813 181.38 26.008 180.921 25.752C180.473 25.4853 179.977 25.352 179.433 25.352C178.889 25.352 178.393 25.48 177.945 25.736C177.497 25.992 177.14 26.3653 176.873 26.856C176.606 27.3467 176.473 27.9227 176.473 28.584C176.473 29.256 176.606 29.8427 176.873 30.344C177.14 30.8347 177.497 31.2133 177.945 31.48C178.393 31.736 178.889 31.864 179.433 31.864C179.977 31.864 180.473 31.736 180.921 31.48C181.38 31.2133 181.742 30.8347 182.009 30.344C182.276 29.8427 182.409 29.2613 182.409 28.6ZM188.117 25.432V30.6C188.117 31.0267 188.208 31.3307 188.389 31.512C188.571 31.6827 188.885 31.768 189.333 31.768H190.405V33H189.093C188.283 33 187.675 32.8133 187.269 32.44C186.864 32.0667 186.661 31.4533 186.661 30.6V25.432H185.525V24.232H186.661V22.024H188.117V24.232H190.405V25.432H188.117ZM191.626 28.584C191.626 27.688 191.807 26.904 192.17 26.232C192.532 25.5493 193.028 25.0213 193.658 24.648C194.298 24.2747 195.007 24.088 195.786 24.088C196.554 24.088 197.22 24.2533 197.786 24.584C198.351 24.9147 198.772 25.3307 199.05 25.832V24.232H200.522V33H199.05V31.368C198.762 31.88 198.33 32.3067 197.754 32.648C197.188 32.9787 196.527 33.144 195.77 33.144C194.991 33.144 194.287 32.952 193.658 32.568C193.028 32.184 192.532 31.6453 192.17 30.952C191.807 30.2587 191.626 29.4693 191.626 28.584ZM199.05 28.6C199.05 27.9387 198.916 27.3627 198.65 26.872C198.383 26.3813 198.02 26.008 197.562 25.752C197.114 25.4853 196.618 25.352 196.074 25.352C195.53 25.352 195.034 25.48 194.586 25.736C194.138 25.992 193.78 26.3653 193.514 26.856C193.247 27.3467 193.114 27.9227 193.114 28.584C193.114 29.256 193.247 29.8427 193.514 30.344C193.78 30.8347 194.138 31.2133 194.586 31.48C195.034 31.736 195.53 31.864 196.074 31.864C196.618 31.864 197.114 31.736 197.562 31.48C198.02 31.2133 198.383 30.8347 198.65 30.344C198.916 29.8427 199.05 29.2613 199.05 28.6Z" fill="#717579"/>
<rect x="1060.5" y="0.5" width="224" height="52" rx="5.5" fill="#5A6ACE" fill-opacity="0.15" stroke="#5A6ACE"/>
<rect x="1060" width="62" height="53" rx="6" fill="#5A6ACE"/>
<path d="M1088.81 23.75V21.878H1092.55V35H1090.48V23.75H1088.81Z" fill="white"/>
<path d="M1148.21 32.21C1149.37 31.214 1150.27 30.398 1150.93 29.762C1151.6 29.114 1152.16 28.442 1152.61 27.746C1153.05 27.05 1153.27 26.354 1153.27 25.658C1153.27 24.938 1153.1 24.374 1152.75 23.966C1152.41 23.558 1151.88 23.354 1151.15 23.354C1150.44 23.354 1149.89 23.582 1149.49 24.038C1149.11 24.482 1148.9 25.082 1148.88 25.838H1146.9C1146.94 24.47 1147.34 23.426 1148.12 22.706C1148.92 21.974 1149.92 21.608 1151.13 21.608C1152.44 21.608 1153.46 21.968 1154.19 22.688C1154.93 23.408 1155.31 24.368 1155.31 25.568C1155.31 26.432 1155.08 27.266 1154.64 28.07C1154.21 28.862 1153.69 29.576 1153.07 30.212C1152.47 30.836 1151.71 31.562 1150.77 32.39L1149.96 33.11H1155.67V34.82H1146.92V33.326L1148.21 32.21Z" fill="#5A6ACE"/>
<path d="M1197.04 25.118C1197.12 24.002 1197.54 23.132 1198.32 22.508C1199.11 21.884 1200.12 21.572 1201.35 21.572C1202.19 21.572 1202.91 21.722 1203.52 22.022C1204.14 22.322 1204.6 22.73 1204.91 23.246C1205.22 23.762 1205.38 24.344 1205.38 24.992C1205.38 25.736 1205.18 26.372 1204.78 26.9C1204.39 27.428 1203.91 27.782 1203.36 27.962V28.034C1204.07 28.25 1204.62 28.646 1205.02 29.222C1205.41 29.786 1205.61 30.512 1205.61 31.4C1205.61 32.108 1205.45 32.738 1205.13 33.29C1204.8 33.842 1204.32 34.28 1203.69 34.604C1203.05 34.916 1202.29 35.072 1201.4 35.072C1200.1 35.072 1199.04 34.742 1198.2 34.082C1197.37 33.41 1196.92 32.45 1196.86 31.202H1198.84C1198.89 31.838 1199.14 32.36 1199.58 32.768C1200.03 33.164 1200.63 33.362 1201.38 33.362C1202.11 33.362 1202.68 33.164 1203.07 32.768C1203.47 32.36 1203.67 31.838 1203.67 31.202C1203.67 30.362 1203.4 29.768 1202.86 29.42C1202.33 29.06 1201.51 28.88 1200.41 28.88H1199.94V27.188H1200.43C1201.4 27.176 1202.14 27.014 1202.64 26.702C1203.16 26.39 1203.42 25.898 1203.42 25.226C1203.42 24.65 1203.23 24.194 1202.86 23.858C1202.49 23.51 1201.96 23.336 1201.27 23.336C1200.6 23.336 1200.08 23.51 1199.71 23.858C1199.34 24.194 1199.11 24.614 1199.04 25.118H1197.04Z" fill="#5A6ACE"/>
<path d="M1246.83 32.264V30.716L1252.88 22.04H1255.36V30.482H1257.03V32.264H1255.36V35H1253.34V32.264H1246.83ZM1253.43 24.128L1249.19 30.482H1253.43V24.128Z" fill="#5A6ACE"/>
<path d="M1339.63 33H1337.58L1331.4 23.658V33H1329.35V20.472H1331.4L1337.58 29.796V20.472H1339.63V33ZM1351.41 27.798C1351.41 28.17 1351.39 28.506 1351.34 28.806H1343.76C1343.82 29.598 1344.12 30.234 1344.64 30.714C1345.17 31.194 1345.82 31.434 1346.59 31.434C1347.69 31.434 1348.47 30.972 1348.93 30.048H1351.14C1350.84 30.96 1350.3 31.71 1349.5 32.298C1348.72 32.874 1347.75 33.162 1346.59 33.162C1345.64 33.162 1344.79 32.952 1344.03 32.532C1343.29 32.1 1342.7 31.5 1342.27 30.732C1341.85 29.952 1341.64 29.052 1341.64 28.032C1341.64 27.012 1341.84 26.118 1342.25 25.35C1342.67 24.57 1343.25 23.97 1344 23.55C1344.75 23.13 1345.62 22.92 1346.59 22.92C1347.52 22.92 1348.36 23.124 1349.09 23.532C1349.82 23.94 1350.39 24.516 1350.8 25.26C1351.21 25.992 1351.41 26.838 1351.41 27.798ZM1349.27 27.15C1349.26 26.394 1348.99 25.788 1348.46 25.332C1347.93 24.876 1347.28 24.648 1346.5 24.648C1345.79 24.648 1345.18 24.876 1344.68 25.332C1344.18 25.776 1343.88 26.382 1343.78 27.15H1349.27ZM1357.68 27.978L1360.88 33H1358.56L1356.42 29.634L1354.4 33H1352.26L1355.47 28.122L1352.26 23.082H1354.58L1356.73 26.448L1358.74 23.082H1360.88L1357.68 27.978ZM1364.81 24.756V30.246C1364.81 30.618 1364.89 30.888 1365.06 31.056C1365.24 31.212 1365.54 31.29 1365.96 31.29H1367.22V33H1365.6C1364.68 33 1363.97 32.784 1363.48 32.352C1362.98 31.92 1362.74 31.218 1362.74 30.246V24.756H1361.57V23.082H1362.74V20.616H1364.81V23.082H1367.22V24.756H1364.81Z" fill="#5A6ACE"/>
<path d="M1390 32L1396 26L1390 20" stroke="#5A6ACE" stroke-width="2" stroke-linecap="round" stroke-linejoin="round"/>
<path d="M1383 32L1389 26L1383 20" stroke="#5A6ACE" stroke-opacity="0.15" stroke-width="2" stroke-linecap="round" stroke-linejoin="round"/>
<path d="M920 31L914 25L920 19" stroke="#5A6ACE" stroke-width="2" stroke-linecap="round" stroke-linejoin="round"/>
<path d="M927 31L921 25L927 19" stroke="#5A6ACE" stroke-opacity="0.15" stroke-width="2" stroke-linecap="round" stroke-linejoin="round"/>
<path d="M952.098 24.716C952.098 25.352 951.948 25.952 951.648 26.516C951.348 27.08 950.868 27.542 950.208 27.902C949.548 28.25 948.702 28.424 947.67 28.424H945.402V33.5H943.35V20.99H947.67C948.63 20.99 949.44 21.158 950.1 21.494C950.772 21.818 951.27 22.262 951.594 22.826C951.93 23.39 952.098 24.02 952.098 24.716ZM947.67 26.75C948.45 26.75 949.032 26.576 949.416 26.228C949.8 25.868 949.992 25.364 949.992 24.716C949.992 23.348 949.218 22.664 947.67 22.664H945.402V26.75H947.67ZM956.107 25.022C956.407 24.518 956.803 24.128 957.295 23.852C957.799 23.564 958.393 23.42 959.077 23.42V25.544H958.555C957.751 25.544 957.139 25.748 956.719 26.156C956.311 26.564 956.107 27.272 956.107 28.28V33.5H954.055V23.582H956.107V25.022ZM970.053 28.298C970.053 28.67 970.029 29.006 969.981 29.306H962.403C962.463 30.098 962.757 30.734 963.285 31.214C963.813 31.694 964.461 31.934 965.229 31.934C966.333 31.934 967.113 31.472 967.569 30.548H969.783C969.483 31.46 968.937 32.21 968.145 32.798C967.365 33.374 966.393 33.662 965.229 33.662C964.281 33.662 963.429 33.452 962.673 33.032C961.929 32.6 961.341 32 960.909 31.232C960.489 30.452 960.279 29.552 960.279 28.532C960.279 27.512 960.483 26.618 960.891 25.85C961.311 25.07 961.893 24.47 962.637 24.05C963.393 23.63 964.257 23.42 965.229 23.42C966.165 23.42 966.999 23.624 967.731 24.032C968.463 24.44 969.033 25.016 969.441 25.76C969.849 26.492 970.053 27.338 970.053 28.298ZM967.911 27.65C967.899 26.894 967.629 26.288 967.101 25.832C966.573 25.376 965.919 25.148 965.139 25.148C964.431 25.148 963.825 25.376 963.321 25.832C962.817 26.276 962.517 26.882 962.421 27.65H967.911ZM975.907 31.664L978.715 23.582H980.893L977.113 33.5H974.665L970.903 23.582H973.099L975.907 31.664ZM983.488 22.268C983.116 22.268 982.804 22.142 982.552 21.89C982.3 21.638 982.174 21.326 982.174 20.954C982.174 20.582 982.3 20.27 982.552 20.018C982.804 19.766 983.116 19.64 983.488 19.64C983.848 19.64 984.154 19.766 984.406 20.018C984.658 20.27 984.784 20.582 984.784 20.954C984.784 21.326 984.658 21.638 984.406 21.89C984.154 22.142 983.848 22.268 983.488 22.268ZM984.496 23.582V33.5H982.444V23.582H984.496ZM991.492 33.662C990.556 33.662 989.71 33.452 988.954 33.032C988.198 32.6 987.604 32 987.172 31.232C986.74 30.452 986.524 29.552 986.524 28.532C986.524 27.524 986.746 26.63 987.19 25.85C987.634 25.07 988.24 24.47 989.008 24.05C989.776 23.63 990.634 23.42 991.582 23.42C992.53 23.42 993.388 23.63 994.156 24.05C994.924 24.47 995.53 25.07 995.974 25.85C996.418 26.63 996.64 27.524 996.64 28.532C996.64 29.54 996.412 30.434 995.956 31.214C995.5 31.994 994.876 32.6 994.084 33.032C993.304 33.452 992.44 33.662 991.492 33.662ZM991.492 31.88C992.02 31.88 992.512 31.754 992.968 31.502C993.436 31.25 993.814 30.872 994.102 30.368C994.39 29.864 994.534 29.252 994.534 28.532C994.534 27.812 994.396 27.206 994.12 26.714C993.844 26.21 993.478 25.832 993.022 25.58C992.566 25.328 992.074 25.202 991.546 25.202C991.018 25.202 990.526 25.328 990.07 25.58C989.626 25.832 989.272 26.21 989.008 26.714C988.744 27.206 988.612 27.812 988.612 28.532C988.612 29.6 988.882 30.428 989.422 31.016C989.974 31.592 990.664 31.88 991.492 31.88ZM1007.65 23.582V33.5H1005.6V32.33C1005.27 32.738 1004.85 33.062 1004.32 33.302C1003.8 33.53 1003.25 33.644 1002.66 33.644C1001.88 33.644 1001.18 33.482 1000.56 33.158C999.946 32.834 999.46 32.354 999.1 31.718C998.752 31.082 998.578 30.314 998.578 29.414V23.582H1000.61V29.108C1000.61 29.996 1000.83 30.68 1001.28 31.16C1001.72 31.628 1002.33 31.862 1003.1 31.862C1003.86 31.862 1004.47 31.628 1004.91 31.16C1005.37 30.68 1005.6 29.996 1005.6 29.108V23.582H1007.65ZM1013.96 33.662C1013.18 33.662 1012.48 33.524 1011.85 33.248C1011.24 32.96 1010.75 32.576 1010.39 32.096C1010.03 31.604 1009.84 31.058 1009.82 30.458H1011.94C1011.98 30.878 1012.18 31.232 1012.54 31.52C1012.91 31.796 1013.37 31.934 1013.92 31.934C1014.5 31.934 1014.94 31.826 1015.25 31.61C1015.58 31.382 1015.74 31.094 1015.74 30.746C1015.74 30.374 1015.56 30.098 1015.2 29.918C1014.85 29.738 1014.29 29.54 1013.53 29.324C1012.78 29.12 1012.18 28.922 1011.71 28.73C1011.24 28.538 1010.83 28.244 1010.48 27.848C1010.15 27.452 1009.98 26.93 1009.98 26.282C1009.98 25.754 1010.14 25.274 1010.45 24.842C1010.76 24.398 1011.2 24.05 1011.78 23.798C1012.37 23.546 1013.04 23.42 1013.8 23.42C1014.92 23.42 1015.83 23.708 1016.51 24.284C1017.21 24.848 1017.58 25.622 1017.63 26.606H1015.58C1015.54 26.162 1015.36 25.808 1015.04 25.544C1014.71 25.28 1014.28 25.148 1013.72 25.148C1013.18 25.148 1012.77 25.25 1012.48 25.454C1012.19 25.658 1012.05 25.928 1012.05 26.264C1012.05 26.528 1012.15 26.75 1012.34 26.93C1012.53 27.11 1012.76 27.254 1013.04 27.362C1013.32 27.458 1013.72 27.584 1014.26 27.74C1014.98 27.932 1015.57 28.13 1016.03 28.334C1016.5 28.526 1016.9 28.814 1017.23 29.198C1017.57 29.582 1017.74 30.092 1017.76 30.728C1017.76 31.292 1017.6 31.796 1017.29 32.24C1016.98 32.684 1016.53 33.032 1015.96 33.284C1015.39 33.536 1014.73 33.662 1013.96 33.662Z" fill="#5A6ACE"/>
</svg>
