<svg width="149" height="48" viewBox="0 0 149 48" fill="none" xmlns="http://www.w3.org/2000/svg">
<circle cx="24" cy="24" r="24" fill="white"/>
<circle cx="24" cy="24" r="20" fill="#C4C4C4"/>
<circle cx="51" cy="24" r="24" fill="white"/>
<circle cx="51" cy="24" r="20" fill="#C4C4C4"/>
<circle cx="77" cy="24" r="24" fill="white"/>
<circle cx="77" cy="24" r="20" fill="#C4C4C4"/>
<circle cx="101" cy="24" r="24" fill="white"/>
<circle cx="101" cy="24" r="20" fill="#C4C4C4"/>
<circle cx="125" cy="24" r="24" fill="white"/>
<circle cx="125" cy="24" r="20" fill="#5A6ACE"/>
<path d="M123.774 19.056H117.942V22.134C118.194 21.822 118.554 21.57 119.022 21.378C119.49 21.174 119.988 21.072 120.516 21.072C121.476 21.072 122.262 21.282 122.874 21.702C123.486 22.122 123.93 22.662 124.206 23.322C124.482 23.97 124.62 24.666 124.62 25.41C124.62 26.79 124.224 27.9 123.432 28.74C122.652 29.58 121.536 30 120.084 30C118.716 30 117.624 29.658 116.808 28.974C115.992 28.29 115.53 27.396 115.422 26.292H117.87C117.978 26.772 118.218 27.156 118.59 27.444C118.974 27.732 119.46 27.876 120.048 27.876C120.756 27.876 121.29 27.654 121.65 27.21C122.01 26.766 122.19 26.178 122.19 25.446C122.19 24.702 122.004 24.138 121.632 23.754C121.272 23.358 120.738 23.16 120.03 23.16C119.526 23.16 119.106 23.286 118.77 23.538C118.434 23.79 118.194 24.126 118.05 24.546H115.638V16.842H123.774V19.056ZM136.24 24.69H132.838V28.182H130.462V24.69H127.06V22.494H130.462V19.002H132.838V22.494H136.24V24.69Z" fill="white"/>
</svg>
