<svg width="58" height="59" viewBox="0 0 58 59" fill="none" xmlns="http://www.w3.org/2000/svg">
<path d="M55.1087 29.2768C55.1087 43.7891 43.4438 55.5537 29.0544 55.5537C14.6649 55.5537 3 43.7891 3 29.2768C3 14.7645 14.6649 3 29.0544 3C43.4438 3 55.1087 14.7645 55.1087 29.2768Z" stroke="#5A6ACE" stroke-opacity="0.15" stroke-width="5"/>
<path d="M29.0544 3C34.2986 3 39.4208 4.59606 43.751 7.57946C48.0813 10.5629 51.4181 14.7947 53.3251 19.7216C55.2321 24.6486 55.6205 30.0412 54.4395 35.1943C53.2585 40.3475 50.5631 45.0213 46.7058 48.6045C42.8485 52.1877 38.0088 54.5135 32.8196 55.2779C27.6304 56.0422 22.3333 55.2094 17.621 52.8885C12.9087 50.5675 9.00056 46.8664 6.40761 42.2691C3.81466 37.6719 2.65763 32.3925 3.08783 27.1213" stroke="#40B2B7" stroke-width="5" stroke-linecap="round"/>
<path d="M16.5815 32.3058C17.5415 31.5058 18.3065 30.8408 18.8765 30.3108C19.4465 29.7708 19.9215 29.2108 20.3015 28.6308C20.6815 28.0508 20.8715 27.4808 20.8715 26.9208C20.8715 26.4108 20.7515 26.0108 20.5115 25.7208C20.2715 25.4308 19.9015 25.2858 19.4015 25.2858C18.9015 25.2858 18.5165 25.4558 18.2465 25.7958C17.9765 26.1258 17.8365 26.5808 17.8265 27.1608H15.7865C15.8265 25.9608 16.1815 25.0508 16.8515 24.4308C17.5315 23.8108 18.3915 23.5008 19.4315 23.5008C20.5715 23.5008 21.4465 23.8058 22.0565 24.4158C22.6665 25.0158 22.9715 25.8108 22.9715 26.8008C22.9715 27.5808 22.7615 28.3258 22.3415 29.0358C21.9215 29.7458 21.4415 30.3658 20.9015 30.8958C20.3615 31.4158 19.6565 32.0458 18.7865 32.7858H23.2115V34.5258H15.8015V32.9658L16.5815 32.3058ZM24.5347 29.0658C24.5347 27.3358 24.8447 25.9808 25.4647 25.0008C26.0947 24.0208 27.1347 23.5308 28.5847 23.5308C30.0347 23.5308 31.0697 24.0208 31.6897 25.0008C32.3197 25.9808 32.6347 27.3358 32.6347 29.0658C32.6347 30.8058 32.3197 32.1708 31.6897 33.1608C31.0697 34.1508 30.0347 34.6458 28.5847 34.6458C27.1347 34.6458 26.0947 34.1508 25.4647 33.1608C24.8447 32.1708 24.5347 30.8058 24.5347 29.0658ZM30.5647 29.0658C30.5647 28.3258 30.5147 27.7058 30.4147 27.2058C30.3247 26.6958 30.1347 26.2808 29.8447 25.9608C29.5647 25.6408 29.1447 25.4808 28.5847 25.4808C28.0247 25.4808 27.5997 25.6408 27.3097 25.9608C27.0297 26.2808 26.8397 26.6958 26.7397 27.2058C26.6497 27.7058 26.6047 28.3258 26.6047 29.0658C26.6047 29.8258 26.6497 30.4658 26.7397 30.9858C26.8297 31.4958 27.0197 31.9108 27.3097 32.2308C27.5997 32.5408 28.0247 32.6958 28.5847 32.6958C29.1447 32.6958 29.5697 32.5408 29.8597 32.2308C30.1497 31.9108 30.3397 31.4958 30.4297 30.9858C30.5197 30.4658 30.5647 29.8258 30.5647 29.0658ZM33.992 26.4258C33.992 25.6658 34.212 25.0708 34.652 24.6408C35.102 24.2108 35.677 23.9958 36.377 23.9958C37.077 23.9958 37.647 24.2108 38.087 24.6408C38.537 25.0708 38.762 25.6658 38.762 26.4258C38.762 27.1958 38.537 27.7958 38.087 28.2258C37.647 28.6558 37.077 28.8708 36.377 28.8708C35.677 28.8708 35.102 28.6558 34.652 28.2258C34.212 27.7958 33.992 27.1958 33.992 26.4258ZM43.622 24.1758L37.727 34.6758H35.687L41.567 24.1758H43.622ZM36.362 25.2558C35.812 25.2558 35.537 25.6458 35.537 26.4258C35.537 27.2158 35.812 27.6108 36.362 27.6108C36.632 27.6108 36.842 27.5158 36.992 27.3258C37.142 27.1258 37.217 26.8258 37.217 26.4258C37.217 25.6458 36.932 25.2558 36.362 25.2558ZM40.577 32.4108C40.577 31.6408 40.797 31.0458 41.237 30.6258C41.687 30.1958 42.262 29.9808 42.962 29.9808C43.662 29.9808 44.227 30.1958 44.657 30.6258C45.097 31.0458 45.317 31.6408 45.317 32.4108C45.317 33.1808 45.097 33.7808 44.657 34.2108C44.227 34.6408 43.662 34.8558 42.962 34.8558C42.252 34.8558 41.677 34.6408 41.237 34.2108C40.797 33.7808 40.577 33.1808 40.577 32.4108ZM42.947 31.2408C42.377 31.2408 42.092 31.6308 42.092 32.4108C42.092 33.2008 42.377 33.5958 42.947 33.5958C43.507 33.5958 43.787 33.2008 43.787 32.4108C43.787 31.6308 43.507 31.2408 42.947 31.2408Z" fill="#40B2B7"/>
</svg>
