<svg width="55" height="55" viewBox="0 0 55 55" fill="none" xmlns="http://www.w3.org/2000/svg">
<path d="M51 27.6753C51 40.7648 40.4787 51.3759 27.5 51.3759C14.5213 51.3759 4 40.7648 4 27.6753C4 14.5858 14.5213 3.97461 27.5 3.97461C40.4787 3.97461 51 14.5858 51 27.6753Z" stroke="#5A6ACE" stroke-opacity="0.15" stroke-width="7"/>
<path d="M27.5 3.97461C32.2301 3.97461 36.8501 5.41419 40.7558 8.1051C44.6615 10.796 47.6712 14.613 49.3912 19.0569C51.1112 23.5007 51.4616 28.3647 50.3963 33.0126C49.3311 37.6605 46.9 41.8761 43.4209 45.108C39.9417 48.3399 35.5765 50.4377 30.8961 51.1271C26.2157 51.8165 21.4379 51.0654 17.1876 48.972C12.9373 46.8786 9.41226 43.5403 7.07353 39.3938C4.73479 35.2472 3.6912 30.4854 4.07922 25.731" stroke="#40B2B7" stroke-width="7" stroke-linecap="round"/>
<path d="M14.1385 24.8V23.252H17.0305V32H15.3025V24.8H14.1385ZM18.6902 27.512C18.6902 26.128 18.9382 25.044 19.4342 24.26C19.9382 23.476 20.7702 23.084 21.9302 23.084C23.0902 23.084 23.9182 23.476 24.4142 24.26C24.9182 25.044 25.1702 26.128 25.1702 27.512C25.1702 28.904 24.9182 29.996 24.4142 30.788C23.9182 31.58 23.0902 31.976 21.9302 31.976C20.7702 31.976 19.9382 31.58 19.4342 30.788C18.9382 29.996 18.6902 28.904 18.6902 27.512ZM23.5142 27.512C23.5142 26.92 23.4742 26.424 23.3942 26.024C23.3222 25.616 23.1702 25.284 22.9382 25.028C22.7142 24.772 22.3782 24.644 21.9302 24.644C21.4822 24.644 21.1422 24.772 20.9102 25.028C20.6862 25.284 20.5342 25.616 20.4542 26.024C20.3822 26.424 20.3462 26.92 20.3462 27.512C20.3462 28.12 20.3822 28.632 20.4542 29.048C20.5262 29.456 20.6782 29.788 20.9102 30.044C21.1422 30.292 21.4822 30.416 21.9302 30.416C22.3782 30.416 22.7182 30.292 22.9502 30.044C23.1822 29.788 23.3342 29.456 23.4062 29.048C23.4782 28.632 23.5142 28.12 23.5142 27.512ZM26.448 27.512C26.448 26.128 26.696 25.044 27.192 24.26C27.696 23.476 28.528 23.084 29.688 23.084C30.848 23.084 31.676 23.476 32.172 24.26C32.676 25.044 32.928 26.128 32.928 27.512C32.928 28.904 32.676 29.996 32.172 30.788C31.676 31.58 30.848 31.976 29.688 31.976C28.528 31.976 27.696 31.58 27.192 30.788C26.696 29.996 26.448 28.904 26.448 27.512ZM31.272 27.512C31.272 26.92 31.232 26.424 31.152 26.024C31.08 25.616 30.928 25.284 30.696 25.028C30.472 24.772 30.136 24.644 29.688 24.644C29.24 24.644 28.9 24.772 28.668 25.028C28.444 25.284 28.292 25.616 28.212 26.024C28.14 26.424 28.104 26.92 28.104 27.512C28.104 28.12 28.14 28.632 28.212 29.048C28.284 29.456 28.436 29.788 28.668 30.044C28.9 30.292 29.24 30.416 29.688 30.416C30.136 30.416 30.476 30.292 30.708 30.044C30.94 29.788 31.092 29.456 31.164 29.048C31.236 28.632 31.272 28.12 31.272 27.512ZM34.0138 25.4C34.0138 24.792 34.1898 24.316 34.5418 23.972C34.9018 23.628 35.3618 23.456 35.9218 23.456C36.4818 23.456 36.9378 23.628 37.2898 23.972C37.6498 24.316 37.8298 24.792 37.8298 25.4C37.8298 26.016 37.6498 26.496 37.2898 26.84C36.9378 27.184 36.4818 27.356 35.9218 27.356C35.3618 27.356 34.9018 27.184 34.5418 26.84C34.1898 26.496 34.0138 26.016 34.0138 25.4ZM41.7178 23.6L37.0018 32H35.3698L40.0738 23.6H41.7178ZM35.9098 24.464C35.4698 24.464 35.2498 24.776 35.2498 25.4C35.2498 26.032 35.4698 26.348 35.9098 26.348C36.1258 26.348 36.2938 26.272 36.4138 26.12C36.5338 25.96 36.5938 25.72 36.5938 25.4C36.5938 24.776 36.3658 24.464 35.9098 24.464ZM39.2818 30.188C39.2818 29.572 39.4578 29.096 39.8098 28.76C40.1698 28.416 40.6298 28.244 41.1898 28.244C41.7498 28.244 42.2018 28.416 42.5458 28.76C42.8978 29.096 43.0738 29.572 43.0738 30.188C43.0738 30.804 42.8978 31.284 42.5458 31.628C42.2018 31.972 41.7498 32.144 41.1898 32.144C40.6218 32.144 40.1618 31.972 39.8098 31.628C39.4578 31.284 39.2818 30.804 39.2818 30.188ZM41.1778 29.252C40.7218 29.252 40.4938 29.564 40.4938 30.188C40.4938 30.82 40.7218 31.136 41.1778 31.136C41.6258 31.136 41.8498 30.82 41.8498 30.188C41.8498 29.564 41.6258 29.252 41.1778 29.252Z" fill="#40B2B7"/>
</svg>
