<svg width="58" height="59" viewBox="0 0 58 59" fill="none" xmlns="http://www.w3.org/2000/svg">
<path d="M55.1087 29.2768C55.1087 43.7891 43.4438 55.5537 29.0544 55.5537C14.6649 55.5537 3 43.7891 3 29.2768C3 14.7645 14.6649 3 29.0544 3C43.4438 3 55.1087 14.7645 55.1087 29.2768Z" stroke="#5A6ACE" stroke-opacity="0.15" stroke-width="5"/>
<path d="M29.0544 3C34.2986 3 39.4208 4.59606 43.751 7.57946C48.0813 10.5629 51.4181 14.7947 53.3251 19.7216C55.2321 24.6486 55.6205 30.0412 54.4395 35.1943C53.2585 40.3475 50.5631 45.0213 46.7058 48.6045C42.8485 52.1877 38.0088 54.5135 32.8196 55.2779C27.6304 56.0422 22.3333 55.2094 17.621 52.8885C12.9087 50.5675 9.00056 46.8664 6.40761 42.2691C3.81466 37.6719 2.65763 32.3925 3.08783 27.1213" stroke="#828282" stroke-width="5" stroke-linecap="round"/>
<path d="M22.7514 25.5558H17.8914V28.1208C18.1014 27.8608 18.4014 27.6508 18.7914 27.4908C19.1814 27.3208 19.5964 27.2358 20.0364 27.2358C20.8364 27.2358 21.4914 27.4108 22.0014 27.7608C22.5114 28.1108 22.8814 28.5608 23.1114 29.1108C23.3414 29.6508 23.4564 30.2308 23.4564 30.8508C23.4564 32.0008 23.1264 32.9258 22.4664 33.6258C21.8164 34.3258 20.8864 34.6758 19.6764 34.6758C18.5364 34.6758 17.6264 34.3908 16.9464 33.8208C16.2664 33.2508 15.8814 32.5058 15.7914 31.5858H17.8314C17.9214 31.9858 18.1214 32.3058 18.4314 32.5458C18.7514 32.7858 19.1564 32.9058 19.6464 32.9058C20.2364 32.9058 20.6814 32.7208 20.9814 32.3508C21.2814 31.9808 21.4314 31.4908 21.4314 30.8808C21.4314 30.2608 21.2764 29.7908 20.9664 29.4708C20.6664 29.1408 20.2214 28.9758 19.6314 28.9758C19.2114 28.9758 18.8614 29.0808 18.5814 29.2908C18.3014 29.5008 18.1014 29.7808 17.9814 30.1308H15.9714V23.7108H22.7514V25.5558ZM25.0548 29.0658C25.0548 27.3358 25.3648 25.9808 25.9848 25.0008C26.6148 24.0208 27.6548 23.5308 29.1048 23.5308C30.5548 23.5308 31.5898 24.0208 32.2098 25.0008C32.8398 25.9808 33.1548 27.3358 33.1548 29.0658C33.1548 30.8058 32.8398 32.1708 32.2098 33.1608C31.5898 34.1508 30.5548 34.6458 29.1048 34.6458C27.6548 34.6458 26.6148 34.1508 25.9848 33.1608C25.3648 32.1708 25.0548 30.8058 25.0548 29.0658ZM31.0848 29.0658C31.0848 28.3258 31.0348 27.7058 30.9348 27.2058C30.8448 26.6958 30.6548 26.2808 30.3648 25.9608C30.0848 25.6408 29.6648 25.4808 29.1048 25.4808C28.5448 25.4808 28.1198 25.6408 27.8298 25.9608C27.5498 26.2808 27.3598 26.6958 27.2598 27.2058C27.1698 27.7058 27.1248 28.3258 27.1248 29.0658C27.1248 29.8258 27.1698 30.4658 27.2598 30.9858C27.3498 31.4958 27.5398 31.9108 27.8298 32.2308C28.1198 32.5408 28.5448 32.6958 29.1048 32.6958C29.6648 32.6958 30.0898 32.5408 30.3798 32.2308C30.6698 31.9108 30.8598 31.4958 30.9498 30.9858C31.0398 30.4658 31.0848 29.8258 31.0848 29.0658ZM34.512 26.4258C34.512 25.6658 34.732 25.0708 35.172 24.6408C35.622 24.2108 36.197 23.9958 36.897 23.9958C37.597 23.9958 38.167 24.2108 38.607 24.6408C39.057 25.0708 39.282 25.6658 39.282 26.4258C39.282 27.1958 39.057 27.7958 38.607 28.2258C38.167 28.6558 37.597 28.8708 36.897 28.8708C36.197 28.8708 35.622 28.6558 35.172 28.2258C34.732 27.7958 34.512 27.1958 34.512 26.4258ZM44.142 24.1758L38.247 34.6758H36.207L42.087 24.1758H44.142ZM36.882 25.2558C36.332 25.2558 36.057 25.6458 36.057 26.4258C36.057 27.2158 36.332 27.6108 36.882 27.6108C37.152 27.6108 37.362 27.5158 37.512 27.3258C37.662 27.1258 37.737 26.8258 37.737 26.4258C37.737 25.6458 37.452 25.2558 36.882 25.2558ZM41.097 32.4108C41.097 31.6408 41.317 31.0458 41.757 30.6258C42.207 30.1958 42.782 29.9808 43.482 29.9808C44.182 29.9808 44.747 30.1958 45.177 30.6258C45.617 31.0458 45.837 31.6408 45.837 32.4108C45.837 33.1808 45.617 33.7808 45.177 34.2108C44.747 34.6408 44.182 34.8558 43.482 34.8558C42.772 34.8558 42.197 34.6408 41.757 34.2108C41.317 33.7808 41.097 33.1808 41.097 32.4108ZM43.467 31.2408C42.897 31.2408 42.612 31.6308 42.612 32.4108C42.612 33.2008 42.897 33.5958 43.467 33.5958C44.027 33.5958 44.307 33.2008 44.307 32.4108C44.307 31.6308 44.027 31.2408 43.467 31.2408Z" fill="#828282"/>
</svg>
