<svg width="24" height="26" viewBox="0 0 24 26" fill="none" xmlns="http://www.w3.org/2000/svg">
<path d="M8 1.46899H4C2.34315 1.46899 1 2.8453 1 4.54307V8.64183C1 10.3396 2.34315 11.7159 4 11.7159H8C9.65686 11.7159 11 10.3396 11 8.64183V4.54307C11 2.8453 9.65686 1.46899 8 1.46899Z" fill="#828282"/>
<path d="M20 1.46899H16C14.3431 1.46899 13 2.8453 13 4.54307V8.64183C13 10.3396 14.3431 11.7159 16 11.7159H20C21.6569 11.7159 23 10.3396 23 8.64183V4.54307C23 2.8453 21.6569 1.46899 20 1.46899Z" fill="#828282"/>
<path d="M8 13.7654H4C2.34315 13.7654 1 15.1417 1 16.8395V20.9382C1 22.636 2.34315 24.0123 4 24.0123H8C9.65686 24.0123 11 22.636 11 20.9382V16.8395C11 15.1417 9.65686 13.7654 8 13.7654Z" fill="#828282"/>
<path d="M20 13.7654H16C14.3431 13.7654 13 15.1417 13 16.8395V20.9382C13 22.636 14.3431 24.0123 16 24.0123H20C21.6569 24.0123 23 22.636 23 20.9382V16.8395C23 15.1417 21.6569 13.7654 20 13.7654Z" fill="#828282"/>
</svg>
