<svg width="24" height="25" viewBox="0 0 24 25" fill="none" xmlns="http://www.w3.org/2000/svg">
<path fill-rule="evenodd" clip-rule="evenodd" d="M22.3779 14.475C22.825 14.7125 23.1699 15.0875 23.4127 15.4625C23.8853 16.2375 23.847 17.1875 23.3871 18.025L22.4929 19.525C22.0202 20.325 21.1388 20.825 20.2318 20.825C19.7847 20.825 19.2865 20.7 18.8777 20.45C18.5456 20.2375 18.1624 20.1625 17.7536 20.1625C16.4889 20.1625 15.4286 21.2 15.3903 22.4375C15.3903 23.875 14.215 25 12.746 25H11.0087C9.52682 25 8.35157 23.875 8.35157 22.4375C8.32602 21.2 7.26574 20.1625 6.00106 20.1625C5.57951 20.1625 5.19627 20.2375 4.87691 20.45C4.46813 20.7 3.95715 20.825 3.52282 20.825C2.60306 20.825 1.72162 20.325 1.24896 19.525L0.367525 18.025C-0.105131 17.2125 -0.130679 16.2375 0.341976 15.4625C0.546367 15.0875 0.929601 14.7125 1.36393 14.475C1.72162 14.3 1.95156 14.0125 2.16872 13.675C2.80745 12.6 2.42421 11.1875 1.33838 10.55C0.0737119 9.8375 -0.335071 8.25 0.393074 7.0125L1.24896 5.5375C1.98988 4.3 3.57392 3.8625 4.85136 4.5875C5.96274 5.1875 7.40626 4.7875 8.05775 3.725C8.26214 3.375 8.37711 3 8.35157 2.625C8.32602 2.1375 8.46654 1.675 8.70925 1.3C9.18191 0.525 10.0378 0.025 10.9703 0H12.7715C13.7168 0 14.5727 0.525 15.0454 1.3C15.2753 1.675 15.4286 2.1375 15.3903 2.625C15.3647 3 15.4797 3.375 15.6841 3.725C16.3356 4.7875 17.7791 5.1875 18.9033 4.5875C20.1679 3.8625 21.7648 4.3 22.4929 5.5375L23.3488 7.0125C24.0897 8.25 23.6809 9.8375 22.4035 10.55C21.3176 11.1875 20.9344 12.6 21.5859 13.675C21.7903 14.0125 22.0202 14.3 22.3779 14.475ZM8.26219 12.5124C8.26219 14.4749 9.88454 16.0374 11.8901 16.0374C13.8957 16.0374 15.4798 14.4749 15.4798 12.5124C15.4798 10.5499 13.8957 8.97494 11.8901 8.97494C9.88454 8.97494 8.26219 10.5499 8.26219 12.5124Z" fill="#828282"/>
</svg>
