<svg width="19" height="19" viewBox="0 0 19 19" fill="none" xmlns="http://www.w3.org/2000/svg">
<path fill-rule="evenodd" clip-rule="evenodd" d="M16.6257 5.28342C16.6257 6.8894 15.3233 8.19185 13.7173 8.19185C12.1113 8.19185 10.8096 6.8894 10.8096 5.28342C10.8096 3.67745 12.1113 2.375 13.7173 2.375C15.3233 2.375 16.6257 3.67745 16.6257 5.28342Z" stroke="#828282" stroke-width="1.5" stroke-linecap="round" stroke-linejoin="round"/>
<path fill-rule="evenodd" clip-rule="evenodd" d="M8.19114 5.28342C8.19114 6.8894 6.8894 8.19185 5.28271 8.19185C3.67745 8.19185 2.375 6.8894 2.375 5.28342C2.375 3.67745 3.67745 2.375 5.28271 2.375C6.8894 2.375 8.19114 3.67745 8.19114 5.28342Z" stroke="#828282" stroke-width="1.5" stroke-linecap="round" stroke-linejoin="round"/>
<path fill-rule="evenodd" clip-rule="evenodd" d="M16.6257 13.6662C16.6257 15.2722 15.3233 16.5739 13.7173 16.5739C12.1113 16.5739 10.8096 15.2722 10.8096 13.6662C10.8096 12.0603 12.1113 10.7578 13.7173 10.7578C15.3233 10.7578 16.6257 12.0603 16.6257 13.6662Z" stroke="#828282" stroke-width="1.5" stroke-linecap="round" stroke-linejoin="round"/>
<path fill-rule="evenodd" clip-rule="evenodd" d="M8.19114 13.6662C8.19114 15.2722 6.8894 16.5739 5.28271 16.5739C3.67745 16.5739 2.375 15.2722 2.375 13.6662C2.375 12.0603 3.67745 10.7578 5.28271 10.7578C6.8894 10.7578 8.19114 12.0603 8.19114 13.6662Z" stroke="#828282" stroke-width="1.5" stroke-linecap="round" stroke-linejoin="round"/>
</svg>
