<svg width="23" height="22" viewBox="0 0 23 22" fill="none" xmlns="http://www.w3.org/2000/svg">
<path d="M11.9287 14C15.7947 14 18.9287 10.866 18.9287 7C18.9287 3.13401 15.7947 0 11.9287 0C8.06272 0 4.92871 3.13401 4.92871 7C4.92871 10.866 8.06272 14 11.9287 14Z" fill="#828282"/>
<path d="M19.7067 13.223C19.4777 12.994 19.2337 12.78 18.9837 12.571C18.1437 13.64 17.0716 14.5041 15.8486 15.0981C14.6256 15.6921 13.2836 16.0004 11.924 15.9998C10.5644 15.9991 9.22273 15.6895 8.00032 15.0942C6.77791 14.499 5.70675 13.6338 4.86773 12.564C3.63107 13.5937 2.63692 14.8838 1.95621 16.342C1.2755 17.8002 0.925004 19.3907 0.929735 21C0.929735 21.2652 1.03509 21.5195 1.22263 21.7071C1.41016 21.8946 1.66452 22 1.92973 22H21.9297C22.195 22 22.4493 21.8946 22.6368 21.7071C22.8244 21.5195 22.9297 21.2652 22.9297 21C22.9333 19.555 22.6503 18.1236 22.0971 16.7887C21.5439 15.4538 20.7314 14.2418 19.7067 13.223Z" fill="#828282"/>
</svg>
