<svg width="20" height="26" viewBox="0 0 20 26" fill="none" xmlns="http://www.w3.org/2000/svg">
<path d="M19.2959 9.3446C19.1795 9.09339 18.9322 8.93315 18.6607 8.93315H11.6086L15.877 1.53136C16.0055 1.30863 16.0075 1.03235 15.8823 0.807701C15.7572 0.583054 15.5241 0.44424 15.2716 0.444336L9.24658 0.445008C8.99655 0.445105 8.76531 0.581132 8.63936 0.802418L0.731547 14.6926C0.604656 14.9154 0.603766 15.1908 0.729156 15.4145C0.854547 15.6381 1.08709 15.7761 1.33886 15.7761H8.34611L6.30517 24.1416C6.2253 24.4689 6.37787 24.8093 6.67225 24.9606C6.77266 25.012 6.88033 25.0369 6.98697 25.0369C7.19303 25.0369 7.39497 24.9441 7.53212 24.7718L19.2056 10.1091C19.3772 9.89351 19.4124 9.5959 19.2959 9.3446Z" fill="#828282"/>
</svg>
